<?xml version="1.0" standalone="no"?>
<!DOCTYPE svg PUBLIC "-//W3C//DTD SVG 20010904//EN"
 "http://www.w3.org/TR/2001/REC-SVG-20010904/DTD/svg10.dtd">
<svg version="1.0" xmlns="http://www.w3.org/2000/svg"
 width="256.000000pt" height="256.000000pt" viewBox="0 0 256.000000 256.000000"
 preserveAspectRatio="xMidYMid meet">

<g transform="translate(0.000000,256.000000) scale(0.100000,-0.100000)"
fill="#000000" stroke="#FFFFFF" stroke-width="10">
<path d="M917 2108 c-17 -17 -34 -56 -57 -139 -17 -64 -35 -121 -39 -128 -5
-8 -93 -12 -307 -14 -326 -2 -336 -4 -362 -63 -9 -18 -12 -201 -12 -660 0
-702 -2 -676 64 -708 31 -14 133 -16 1083 -16 978 0 1050 1 1083 18 72 36 70
14 70 705 0 673 0 667 -56 704 -26 16 -57 18 -338 20 -170 1 -313 6 -318 11
-5 5 -25 65 -43 133 -24 85 -42 130 -56 142 -19 15 -52 17 -355 17 -331 0
-333 0 -357 -22z m1250 -484 c57 -42 73 -79 73 -169 0 -90 -16 -127 -73 -169
-27 -20 -43 -21 -295 -24 -262 -3 -268 -2 -311 20 -73 38 -86 64 -86 173 0
109 13 135 86 173 43 22 49 23 311 20 252 -3 268 -4 295 -24z m-1128 -22 c182
-71 316 -237 343 -428 35 -245 -111 -484 -347 -570 -352 -128 -728 156 -702
531 16 229 169 418 388 480 78 22 246 15 318 -13z"/>
<path d="M1584 1590 c-46 -18 -64 -57 -64 -136 0 -67 3 -77 29 -106 l29 -33
261 -3 c224 -3 266 -1 295 13 86 41 90 209 7 258 -25 15 -61 17 -283 16 -139
0 -263 -4 -274 -9z"/>
<path d="M791 1578 c-136 -15 -287 -120 -353 -244 -74 -138 -77 -307 -7 -450
12 -26 48 -74 80 -109 186 -198 483 -206 680 -18 194 185 198 491 8 683 -107
109 -247 156 -408 138z m381 -512 c-6 -127 -115 -248 -251 -277 -45 -9 -56 -9
-68 4 -22 22 -10 33 42 40 114 16 211 109 230 222 10 60 13 67 32 63 15 -3 18
-13 15 -52z"/>
</g>
</svg>
